<svg xmlns="http://www.w3.org/2000/svg" viewBox="0 0 24 24" fill="#ffffff">
  <path d="M23.998 4.57c-.885.389-1.83.653-2.825.774 1.014-.611 1.795-1.574 2.163-2.723-.951.563-2.005.973-3.127 1.194-.896-.959-2.176-1.559-3.594-1.559-2.72 0-4.925 2.205-4.925 4.924 0 .387.044.763.13 1.125C7.2 8.058 4.047 6.29 1.643 3.21.375 5.445 1.02 8.13 3.07 9.475c-.567-.01-1.103-.174-1.572-.433v.044c0 2.51 1.784 4.607 4.146 5.088-.433.117-.888.18-1.36.18-.332 0-.655-.03-.972-.09.656 2.052 2.557 3.54 4.805 3.578-1.759 1.378-3.97 2.196-6.37 2.196-.413 0-.82-.024-1.224-.072 2.27 1.453 4.964 2.296 7.87 2.296 9.439 0 14.58-7.81 14.58-14.58 0-.22-.005-.438-.014-.655.999-.716 1.868-1.61 2.554-2.623z"/>
</svg>
